<svg width="12" height="12" viewBox="0 0 12 12" fill="none" xmlns="http://www.w3.org/2000/svg">
<path d="M0.772174 0.049774L5.19713 4.59068L3.33413 6.50318L0.771515 3.87341C0.277514 3.36631 0 2.67863 0 1.96159C0 1.24456 0.278173 0.556873 0.772174 0.049774ZM7.39017 5.68653L6.82759 6.26386L11.4857 11.0441L10.5542 12L5.89609 7.22045L1.23792 12L0.306424 11.0441L6.45867 4.73062C6.07132 3.74564 6.47185 2.32733 7.52588 1.24432C8.81246 -0.0752923 10.5852 -0.396408 11.4857 0.527729C12.3863 1.45187 12.0734 3.27107 10.7874 4.59068C9.7321 5.67369 8.35 6.08472 7.39017 5.68653Z" fill="#1D1F27"/>
</svg>
